<svg width="24" height="24" viewBox="0 0 24 24" fill="none" xmlns="http://www.w3.org/2000/svg">
<path d="M21.9988 3.40844L21.8788 2.14844L20.6788 2.54844C18.6223 3.26298 16.4261 3.48225 14.2688 3.18844C12.002 2.83665 9.68176 3.14925 7.58884 4.08844C6.47932 4.56088 5.50559 5.30335 4.75631 6.24825C4.00704 7.19314 3.50601 8.31045 3.29884 9.49844C3.03022 11.0331 3.1646 12.6113 3.68884 14.0784C4.02639 13.3165 4.42084 12.5811 4.86884 11.8784C5.88504 10.3833 7.29312 9.19662 8.93884 8.44844C10.5243 7.72456 12.2572 7.38208 13.9988 7.44844C12.3409 7.70194 10.7538 8.29792 9.33884 9.19844C8.65631 9.62729 8.03127 10.1414 7.47884 10.7284C6.9505 11.3152 6.48466 11.9553 6.08884 12.6384C5.34537 14.0664 4.81635 15.5962 4.51884 17.1784C4.19815 18.7658 4.02409 20.3792 3.99884 21.9984H5.99884C6.09284 20.5463 6.29 19.1026 6.58884 17.6784C7.97627 18.4276 9.53219 18.8097 11.1088 18.7884C12.5793 18.7874 14.0347 18.4916 15.3888 17.9184C22.9988 14.6684 21.9988 3.85844 21.9988 3.40844Z" fill="black"/>
</svg>
