<svg width="16" height="17" viewBox="0 0 16 17" fill="none" xmlns="http://www.w3.org/2000/svg">
<path d="M7.15087 2.53302C7.54215 1.90371 8.45807 1.90371 8.84935 2.53302L10.4657 5.1327C10.6034 5.35411 10.8221 5.51301 11.0752 5.57552L14.0471 6.30942C14.7665 6.48708 15.0496 7.35816 14.572 7.92476L12.599 10.2653C12.431 10.4647 12.3474 10.7218 12.3662 10.9818L12.5866 14.0351C12.6399 14.7742 11.899 15.3126 11.2125 15.0334L8.3768 13.8803C8.13527 13.7821 7.86494 13.7821 7.62342 13.8803L4.78771 15.0334C4.10126 15.3126 3.36027 14.7742 3.41362 14.0351L3.63402 10.9818C3.65279 10.7218 3.56925 10.4647 3.40121 10.2653L1.42825 7.92476C0.950652 7.35816 1.23369 6.48708 1.95311 6.30942L4.92503 5.57552C5.17815 5.51301 5.39685 5.35411 5.53452 5.1327L7.15087 2.53302Z" fill="currentColor"/>
</svg>
