<svg width="145" height="145" viewBox="0 0 145 145" fill="none" xmlns="http://www.w3.org/2000/svg">
<mask id="mask0_30694_43535" style="mask-type:alpha" maskUnits="userSpaceOnUse" x="0" y="0" width="145" height="145">
<path d="M144.5 72.8594C144.5 112.624 112.265 144.859 72.5 144.859C32.7355 144.859 0.5 112.624 0.5 72.8594C0.5 33.0949 32.7355 0.859375 72.5 0.859375C112.265 0.859375 144.5 33.0949 144.5 72.8594Z" fill="#70ACDE"/>
</mask>
<g mask="url(#mask0_30694_43535)">
<circle cx="72.3459" cy="73.0275" r="72.0002" fill="#70ACDE"/>
<circle cx="72.3459" cy="73.0275" r="72.0002" fill="url(#paint0_linear_30694_43535)" fill-opacity="0.2"/>
<path d="M-0.435658 7.82286C18.2293 -8.48225 44.8028 -8.60139 58.9179 7.5565C69.3729 19.5248 70.0596 37.0661 62.1279 51.9844C61.9859 52.2515 62.0272 52.5797 62.2262 52.8075C69.1959 60.7859 67.3746 73.7804 58.1583 81.8314C48.9421 89.8824 35.8208 89.9414 28.8512 81.963C27.0247 79.8721 24.4024 78.4056 21.6308 78.5682C10.0407 79.2482 -1.1069 75.2646 -8.67394 66.6024C-22.7889 50.4445 -19.1005 24.1279 -0.435658 7.82286Z" fill="#99E587"/>
<path d="M105.925 20.3841C114.242 18.5948 122.24 22.9806 123.789 30.1803C125.338 37.3799 119.852 44.667 111.535 46.4564C110.284 46.7255 109.041 46.8549 107.825 46.8561C105.1 46.8587 102.344 47.4887 99.7564 48.3445C95.8562 49.6347 91.6794 48.8196 89.1203 45.8902C85.5479 41.8008 86.4813 35.14 91.2053 31.0133C91.4077 30.8364 91.6139 30.6671 91.8233 30.5054C93.5076 29.2043 95.0939 27.7139 96.4361 26.0622C98.6587 23.3273 101.972 21.2347 105.925 20.3841Z" fill="#99E587"/>
<path d="M92.2042 78.3324C102.151 76.1922 111.974 82.6324 114.144 92.7172C114.146 92.7237 114.149 92.7293 114.155 92.7327C117.882 94.9458 120.633 98.4474 121.56 102.757C122.988 109.393 119.686 116.061 113.757 119.888C113.728 119.906 113.732 119.949 113.763 119.962C113.794 119.976 113.813 120.01 113.784 120.027C112.318 120.896 81.5138 138.866 64.4398 124.962C61.3542 122.747 59.1078 119.568 58.2879 115.757C56.3824 106.901 62.9015 97.9863 72.8487 95.8461C72.8694 95.8416 72.8902 95.8372 72.9109 95.8328C75.553 95.2726 77.7843 93.205 78.6255 90.6385C80.6063 84.5946 85.6032 79.7527 92.2042 78.3324Z" fill="#99E587"/>
<path d="M53.752 46.9531C53.752 48.9552 52.129 50.5781 50.127 50.5781C48.1249 50.5781 46.502 48.9552 46.502 46.9531C46.502 44.9511 48.1249 43.3281 50.127 43.3281C52.129 43.3281 53.752 44.9511 53.752 46.9531Z" fill="#202020"/>
<path d="M77.998 46.9531C77.998 48.9552 76.3751 50.5781 74.373 50.5781C72.371 50.5781 70.748 48.9552 70.748 46.9531C70.748 44.9511 72.371 43.3281 74.373 43.3281C76.3751 43.3281 77.998 44.9511 77.998 46.9531Z" fill="#202020"/>
<path d="M68.8497 55.1254C70.0974 54.5157 71.6174 54.9854 72.2972 56.2143C72.977 57.4432 72.5671 58.9804 71.3875 59.7133L71.2708 59.7817C62.9756 64.3703 55.0067 61.8491 51.7171 59.7802L51.5641 59.6821L51.4527 59.6052C50.3304 58.7874 50.0347 57.224 50.8031 56.0485C51.5716 54.873 53.1225 54.5164 54.3219 55.2165L54.4366 55.2875L54.5335 55.3495C56.6284 56.6618 62.522 58.6219 68.7298 55.1879L68.8497 55.1254Z" fill="#202020"/>
</g>
<defs>
<linearGradient id="paint0_linear_30694_43535" x1="61.2752" y1="34.6989" x2="114.989" y2="128.498" gradientUnits="userSpaceOnUse">
<stop stop-color="white"/>
<stop offset="1" stop-color="#2887D7"/>
</linearGradient>
</defs>
</svg>
