<svg width="174" height="28" viewBox="0 0 174 28" fill="none" xmlns="http://www.w3.org/2000/svg">
<mask id="mask0_30694_43545" style="mask-type:alpha" maskUnits="userSpaceOnUse" x="0" y="0" width="28" height="28">
<path d="M28 14C28 21.732 21.732 28 14 28C6.26801 28 0 21.732 0 14C0 6.26801 6.26801 0 14 0C21.732 0 28 6.26801 28 14Z" fill="#70ACDE"/>
</mask>
<g mask="url(#mask0_30694_43545)">
<circle cx="13.9688" cy="14.0313" r="14" fill="#70ACDE"/>
<circle cx="13.9688" cy="14.0313" r="14" fill="url(#paint0_linear_30694_43545)" fill-opacity="0.2"/>
<path d="M-0.183289 1.3462C3.446 -1.82424 8.61308 -1.84741 11.3577 1.29441C13.3906 3.62157 13.5241 7.03237 11.9819 9.93317C11.9542 9.98511 11.9623 10.0489 12.001 10.0932C13.3562 11.6446 13.002 14.1713 11.21 15.7367C9.41794 17.3022 6.86659 17.3137 5.51138 15.7623C5.15622 15.3558 4.64632 15.0706 4.10741 15.1022C1.85378 15.2345 -0.313809 14.4599 -1.78518 12.7756C-4.52975 9.63374 -3.81257 4.51663 -0.183289 1.3462Z" fill="#99E587"/>
<path d="M20.4984 3.78867C22.1156 3.44074 23.6707 4.29354 23.9719 5.69347C24.2731 7.0934 23.2063 8.51033 21.5892 8.85827C21.346 8.9106 21.1042 8.93576 20.8678 8.93599C20.338 8.9365 19.8019 9.059 19.2989 9.22541C18.5405 9.47628 17.7284 9.31779 17.2308 8.74819C16.5361 7.95301 16.7176 6.65787 17.6362 5.85545C17.6755 5.82106 17.7156 5.78814 17.7563 5.75668C18.0838 5.50369 18.3923 5.2139 18.6533 4.89274C19.0854 4.36095 19.7298 3.95405 20.4984 3.78867Z" fill="#99E587"/>
<path d="M17.831 15.0408C19.7652 14.6246 21.6752 15.8769 22.0971 17.8378C22.0974 17.8391 22.0982 17.8402 22.0993 17.8408C22.8239 18.2711 23.3588 18.952 23.5391 19.79C23.8168 21.0802 23.1748 22.3768 22.0218 23.121C22.0163 23.1245 22.0169 23.1328 22.023 23.1355C22.0291 23.1381 22.0328 23.1447 22.0271 23.1481C21.7421 23.3169 15.7524 26.8113 12.4324 24.1076C11.8324 23.6769 11.3956 23.0588 11.2362 22.3179C10.8657 20.5958 12.1333 18.8624 14.0675 18.4462C14.0715 18.4453 14.0755 18.4445 14.0796 18.4436C14.5933 18.3347 15.0272 17.9327 15.1907 17.4336C15.5759 16.2584 16.5475 15.3169 17.831 15.0408Z" fill="#99E587"/>
<path d="M9.06225 9.36706C9.06225 9.97537 8.56912 10.4685 7.96081 10.4685C7.35251 10.4685 6.85938 9.97537 6.85938 9.36706C6.85938 8.75876 7.35251 8.26562 7.96081 8.26562C8.56912 8.26562 9.06225 8.75876 9.06225 9.36706Z" fill="#202020"/>
<path d="M16.4294 9.36706C16.4294 9.97537 15.9363 10.4685 15.328 10.4685C14.7197 10.4685 14.2266 9.97537 14.2266 9.36706C14.2266 8.75876 14.7197 8.26562 15.328 8.26562C15.9363 8.26562 16.4294 8.75876 16.4294 9.36706Z" fill="#202020"/>
<path d="M13.6486 11.7996C14.0277 11.6143 14.4896 11.757 14.6961 12.1304C14.9027 12.5038 14.7781 12.9709 14.4197 13.1936L14.3843 13.2144C11.8638 14.6086 9.44246 13.8425 8.44296 13.2139L8.39644 13.1841L8.36262 13.1607C8.02159 12.9123 7.93175 12.4372 8.16522 12.0801C8.39873 11.7229 8.86996 11.6145 9.23439 11.8273L9.26926 11.8488L9.29871 11.8677C9.93523 12.2664 11.726 12.862 13.6122 11.8186L13.6486 11.7996Z" fill="#202020"/>
</g>
<path d="M168.545 12.5232C166.822 12.5232 165.992 13.6707 165.992 15.8805V16.3054C165.992 18.579 166.734 19.6627 168.436 19.6627C170.247 19.6627 171.294 18.3878 171.294 16.7942V14.8393C171.294 13.7556 170.443 12.5232 168.545 12.5232ZM172.625 6C173.345 6 174 6.36122 174 7.12616V20.8101C174 21.5538 173.367 21.8938 172.691 21.8938C172.036 21.8938 171.404 21.5538 171.404 20.8101V20.3851H171.338C170.705 21.5113 169.331 21.9363 167.891 21.9363C164.858 21.9363 163.265 20.0027 163.265 16.3692V15.8167C163.265 12.1195 165.185 10.2284 168.087 10.2284C169.985 10.2284 170.902 10.9721 171.251 11.4821V7.12616C171.251 6.36122 171.927 6 172.625 6Z" fill="#1F1F22"/>
<path d="M155.841 16.9431C154.401 16.9431 153.899 17.5168 153.899 18.4305V18.473C153.899 19.2804 154.466 19.7054 155.535 19.7054C156.386 19.7054 157.041 19.5779 157.564 19.2804C158.263 18.8767 158.546 18.388 158.546 17.4956V16.9431H155.841ZM156.408 10.2286C159.223 10.2286 161.252 11.6098 161.252 13.9683V20.8741C161.252 21.5753 160.641 21.894 160.008 21.894C159.375 21.894 158.765 21.5753 158.765 20.8741V20.3216H158.743C158.525 20.8103 158.066 21.1715 157.455 21.469C156.888 21.7452 156.059 21.9365 155.317 21.9365C152.721 21.9365 151.237 20.7041 151.237 18.6005V18.2605C151.237 16.3269 152.371 14.882 155.775 14.882H158.524V14.5846C158.524 13.1397 157.87 12.5447 156.386 12.5447C155.404 12.5447 154.466 12.7997 153.593 13.3097C153.004 13.6496 152.393 13.4584 152.044 12.9059C151.717 12.3747 151.782 11.716 152.35 11.3548C153.397 10.6749 154.881 10.2286 156.408 10.2286Z" fill="#1F1F22"/>
<path d="M138.062 10.2286C139.546 10.2286 140.833 10.9511 141.27 12.0135C142.121 10.8448 143.19 10.2286 145.001 10.2286C147.226 10.2286 149.146 11.716 149.146 14.6483V20.7678C149.146 21.5328 148.492 21.894 147.772 21.894C147.074 21.894 146.397 21.5328 146.397 20.7678V15.2008C146.397 13.0972 145.372 12.6085 144.215 12.6085C143.146 12.6085 142.012 13.1609 142.012 15.1158V20.7678C142.012 21.5328 141.357 21.894 140.637 21.894C139.939 21.894 139.262 21.5328 139.262 20.7678V15.1583C139.262 13.1822 138.302 12.6085 137.081 12.6085C135.793 12.6085 134.877 13.3946 134.877 15.0095V20.7678C134.877 21.5328 134.222 21.894 133.502 21.894C132.804 21.894 132.128 21.5328 132.128 20.7678V11.4398C132.128 10.6961 132.76 10.3561 133.415 10.3561C134.091 10.3561 134.724 10.6961 134.724 11.4398V12.0348C135.357 10.8873 136.535 10.2286 138.062 10.2286Z" fill="#1F1F22"/>
<path d="M124.286 10.2286C127.821 10.2286 129.915 12.1622 129.915 15.817V16.3482C129.915 20.0029 127.821 21.9365 124.286 21.9365C120.751 21.9365 118.657 20.0029 118.657 16.3482V15.817C118.657 12.1622 120.751 10.2286 124.286 10.2286ZM124.286 12.566C122.322 12.566 121.428 13.5646 121.428 15.8595V16.3057C121.428 18.6005 122.322 19.5992 124.286 19.5992C126.25 19.5992 127.144 18.6005 127.144 16.3057V15.8595C127.144 13.5646 126.25 12.566 124.286 12.566Z" fill="#1F1F22"/>
<path d="M115.041 6.53121C115.696 6.53121 116.328 6.87118 116.328 7.63612V20.0452C116.328 21.3838 115.87 21.8088 114.474 21.8088C113.405 21.8088 112.99 21.5963 111.877 19.6627L107.753 12.4807C107.317 11.7158 106.968 10.9934 106.706 10.0372V20.7888C106.706 21.5538 106.073 21.8938 105.419 21.8938C104.764 21.8938 104.131 21.5538 104.131 20.7888V8.37981C104.131 7.04117 104.59 6.6162 105.986 6.6162C107.055 6.6162 107.47 6.84993 108.583 8.76228L112.706 15.9442C113.143 16.7092 113.492 17.4316 113.754 18.3878V7.63612C113.754 6.87118 114.386 6.53121 115.041 6.53121Z" fill="#1F1F22"/>
<path d="M99.7814 6C100.501 6 101.156 6.36122 101.156 7.14741V20.7463C101.156 21.5325 100.501 21.8938 99.7814 21.8938C99.0614 21.8938 98.4068 21.5325 98.4068 20.7463V7.14741C98.4068 6.36122 99.0614 6 99.7814 6Z" fill="#1F1F22"/>
<path d="M90.328 16.9431C88.8879 16.9431 88.3861 17.5168 88.3861 18.4305V18.473C88.3861 19.2804 88.9534 19.7054 90.0225 19.7054C90.8735 19.7054 91.528 19.5779 92.0517 19.2804C92.7499 18.8767 93.0335 18.388 93.0335 17.4956V16.9431H90.328ZM90.8953 10.2286C93.7099 10.2286 95.7391 11.6098 95.7391 13.9683V20.8741C95.7391 21.5753 95.1282 21.894 94.4954 21.894C93.8627 21.894 93.2517 21.5753 93.2517 20.8741V20.3216H93.2299C93.0117 20.8103 92.5535 21.1715 91.9426 21.469C91.3753 21.7452 90.5462 21.9365 89.8043 21.9365C87.2078 21.9365 85.7241 20.7041 85.7241 18.6005V18.2605C85.7241 16.3269 86.8587 14.882 90.2625 14.882H93.0117V14.5846C93.0117 13.1397 92.3572 12.5447 90.8735 12.5447C89.8916 12.5447 88.9534 12.7997 88.0806 13.3097C87.4915 13.6496 86.8806 13.4584 86.5314 12.9059C86.2042 12.3747 86.2696 11.716 86.8369 11.3548C87.8842 10.6749 89.3679 10.2286 90.8953 10.2286Z" fill="#1F1F22"/>
<path d="M74.7866 6C75.5066 6 76.1612 6.36122 76.1612 7.12616V11.6308C76.9467 10.5259 78.4958 10.2284 79.4559 10.2284C82.5978 10.2284 84.147 12.162 84.147 15.7955V16.3479C84.147 20.0452 82.2269 21.9363 79.3249 21.9363C77.7321 21.9363 76.6412 21.2988 76.0957 20.4064H76.0303V20.8101C76.0303 21.5538 75.3975 21.8938 74.7211 21.8938C74.0447 21.8938 73.412 21.5538 73.412 20.8101V7.12616C73.412 6.36122 74.0883 6 74.7866 6ZM78.9104 12.5232C77.0776 12.5232 76.1175 13.6919 76.1175 15.2855V17.2616C76.1175 18.4303 77.3176 19.6627 78.9758 19.6627C80.5686 19.6627 81.4196 18.5153 81.4196 16.2842V15.8592C81.4196 13.6707 80.7214 12.5232 78.9104 12.5232Z" fill="#1F1F22"/>
<path d="M65.5703 10.2286C69.105 10.2286 71.1996 12.1622 71.1996 15.817V16.3482C71.1996 20.0029 69.105 21.9365 65.5703 21.9365C62.0356 21.9365 59.9409 20.0029 59.9409 16.3482V15.817C59.9409 12.1622 62.0356 10.2286 65.5703 10.2286ZM65.5703 12.566C63.6065 12.566 62.7119 13.5646 62.7119 15.8595V16.3057C62.7119 18.6005 63.6065 19.5992 65.5703 19.5992C67.534 19.5992 68.4286 18.6005 68.4286 16.3057V15.8595C68.4286 13.5646 67.534 12.566 65.5703 12.566Z" fill="#1F1F22"/>
<path d="M56.3545 6C57.0745 6 57.7291 6.36122 57.7291 7.14741V20.7463C57.7291 21.5325 57.0745 21.8938 56.3545 21.8938C55.6345 21.8938 54.9799 21.5325 54.9799 20.7463V7.14741C54.9799 6.36122 55.6345 6 56.3545 6Z" fill="#1F1F22"/>
<path d="M47.0039 6.42497C49.0549 6.42497 50.495 6.89243 51.5205 7.57238C52.1751 8.01859 52.2187 8.74103 51.8041 9.31474C51.3896 9.88845 50.735 10.0372 50.1895 9.69721C49.3604 9.18725 48.3349 8.88977 47.0039 8.88977C44.0802 8.88977 42.8147 10.0797 42.8147 13.9894V14.4356C42.8147 18.3453 44.0147 19.5352 47.1349 19.5352C48.204 19.5352 48.9458 19.4077 49.7532 19.089V15.5405H47.3094C46.633 15.5405 46.3275 15.0093 46.3275 14.3931C46.3275 13.7981 46.633 13.2669 47.3094 13.2669H50.6696C52.066 13.2669 52.5242 13.6919 52.5242 15.0305V19.2377C52.5242 20.3214 52.1969 20.8526 51.2587 21.2351C50.1023 21.7025 48.5531 22 47.0476 22C42.4874 22 40 20.0239 40 14.6481V13.7769C40 8.40106 42.4874 6.42497 47.0039 6.42497Z" fill="#1F1F22"/>
<defs>
<linearGradient id="paint0_linear_30694_43545" x1="11.8162" y1="6.5785" x2="22.2606" y2="24.8173" gradientUnits="userSpaceOnUse">
<stop stop-color="white"/>
<stop offset="1" stop-color="#2887D7"/>
</linearGradient>
</defs>
</svg>
