<svg width="88" height="88" viewBox="0 0 88 88" fill="none" xmlns="http://www.w3.org/2000/svg">
<mask id="mask0_30694_43341" style="mask-type:alpha" maskUnits="userSpaceOnUse" x="5" y="13" width="62" height="62">
<path d="M66.2132 44.0031C66.2132 60.6898 52.6859 74.2171 35.9992 74.2171C19.3124 74.2171 5.78516 60.6898 5.78516 44.0031C5.78516 27.3163 19.3124 13.7891 35.9992 13.7891C52.6859 13.7891 66.2132 27.3163 66.2132 44.0031Z" fill="#70ACDE"/>
</mask>
<g mask="url(#mask0_30694_43341)">
<circle cx="35.925" cy="44.173" r="34.5324" fill="#FF8F8F"/>
<ellipse cx="30.8819" cy="39.456" rx="2.03618" ry="5.66299" fill="white"/>
<path d="M32.8474 39.8644C32.8474 38.1099 32.4547 36.6249 31.9248 35.6537C31.6613 35.1707 31.3994 34.8793 31.2012 34.7257C31.0165 34.5825 30.9273 34.5853 30.9185 34.5853C30.9097 34.5853 30.8205 34.5825 30.6357 34.7257C30.4375 34.8793 30.1757 35.1707 29.9121 35.6537C29.3823 36.6249 28.9896 38.1099 28.9896 39.8644C28.9896 41.619 29.3823 43.1039 29.9121 44.0752C30.1757 44.5583 30.4375 44.8495 30.6357 45.0032C30.8205 45.1465 30.9097 45.1436 30.9185 45.1436V47.2367L30.7114 47.2272C28.6549 47.0359 27.0062 44.0135 26.9019 40.244L26.8965 39.8644C26.8965 35.7929 28.6972 32.4922 30.9185 32.4922C33.1398 32.4922 34.9405 35.7929 34.9405 39.8644L34.935 40.244C34.8273 44.1392 33.0703 47.2367 30.9185 47.2367V45.1436C30.9273 45.1436 31.0164 45.1465 31.2012 45.0032C31.3995 44.8495 31.6613 44.5583 31.9248 44.0752C32.4547 43.1039 32.8474 41.619 32.8474 39.8644Z" fill="#1F1F22"/>
<path d="M27.0632 31.1215C27.0632 32.0687 26.2953 32.8367 25.348 32.8367C24.4007 32.8367 23.6328 32.0687 23.6328 31.1215C23.6328 30.1742 24.4007 29.4062 25.348 29.4062C26.2953 29.4062 27.0632 30.1742 27.0632 31.1215Z" fill="#1F1F22"/>
<path d="M38.5339 31.1215C38.5339 32.0687 37.766 32.8367 36.8187 32.8367C35.8714 32.8367 35.1035 32.0687 35.1035 31.1215C35.1035 30.1742 35.8714 29.4062 36.8187 29.4062C37.766 29.4062 38.5339 30.1742 38.5339 31.1215Z" fill="#1F1F22"/>
</g>
<path d="M80.0227 21.5983L75.0173 21.0682C74.4764 21.011 73.9756 21.1233 73.5904 21.348C72.6427 21.9008 72.8211 23.261 72.7705 24.3571L72.0152 40.7144C71.9646 41.8105 71.8978 43.054 72.7336 43.7649C73.7216 44.6052 75.4008 44.8164 76.5858 44.2534C77.6056 43.769 77.8716 42.5173 78.1093 41.4136L81.4632 25.8448C81.7427 24.5477 82.4892 22.9195 81.4444 22.1015C81.1263 21.8525 80.6636 21.666 80.0227 21.5983Z" fill="#1F1F22"/>
<path d="M77.147 51.6736C77.0352 53.3881 75.5546 54.6873 73.84 54.5755C72.1255 54.4636 70.8263 52.9831 70.9381 51.2685C71.05 49.554 72.5305 48.2547 74.2451 48.3666C75.9596 48.4784 77.2589 49.959 77.147 51.6736Z" fill="#1F1F22"/>
</svg>
