<svg width="24" height="24" viewBox="0 0 24 24" fill="none" xmlns="http://www.w3.org/2000/svg">
<path d="M20.2464 3.03456C20.1774 3.01656 18.5044 2.60156 16.1944 2.60156C13.3524 2.60156 9.32643 3.24156 6.28443 6.28856C0.944426 11.6376 2.94443 19.8986 3.03243 20.2486C3.07667 20.4241 3.16776 20.5844 3.29598 20.7123C3.42419 20.8401 3.58472 20.9308 3.76043 20.9746C3.82943 20.9926 5.48643 21.4006 7.77843 21.4006C10.6274 21.4006 14.6624 20.7596 17.7104 17.7126C23.0454 12.3776 21.0614 4.11256 20.9744 3.76356C20.9302 3.58766 20.8391 3.42703 20.7109 3.29868C20.5828 3.17034 20.4223 3.07907 20.2464 3.03456ZM16.7094 12.2966L15.2954 13.7106L13.5024 11.9186L11.9164 13.5046L13.7084 15.2976L12.2944 16.7116L10.5024 14.9186L8.70943 16.7116L7.29543 15.2976L9.08843 13.5046L7.29543 11.7106L8.70943 10.2966L10.5024 12.0906L12.0884 10.5046L10.2944 8.71156L11.7084 7.29756L13.5024 9.09056L15.2954 7.29756L16.7094 8.71156L14.9164 10.5046L16.7094 12.2966Z" fill="black"/>
</svg>
