<svg width="24" height="24" viewBox="0 0 24 24" fill="none" xmlns="http://www.w3.org/2000/svg">
<path d="M2.34478 15.271L4.34478 18.731C4.47756 18.9605 4.69605 19.1279 4.9522 19.1963C5.20836 19.2648 5.48122 19.2287 5.71078 19.096L7.10678 18.29C7.68678 18.747 8.32778 19.122 9.00178 19.402V21C9.00178 21.2652 9.10713 21.5196 9.29467 21.7071C9.4822 21.8946 9.73656 22 10.0018 22H14.0018C14.267 22 14.5213 21.8946 14.7089 21.7071C14.8964 21.5196 15.0018 21.2652 15.0018 21V19.402C15.6811 19.1192 16.3186 18.7451 16.8968 18.29L18.2928 19.096C18.7698 19.371 19.3838 19.206 19.6588 18.731L21.6588 15.271C21.7904 15.0412 21.8259 14.7687 21.7575 14.5129C21.6891 14.257 21.5225 14.0385 21.2938 13.905L19.9218 13.112C20.029 12.3745 20.0283 11.6253 19.9198 10.888L21.2918 10.095C21.7678 9.82 21.9328 9.205 21.6568 8.729L19.6568 5.269C19.524 5.0395 19.3055 4.87212 19.0493 4.80367C18.7932 4.73523 18.5203 4.77131 18.2908 4.904L16.8948 5.71C16.3173 5.25438 15.68 4.88022 15.0008 4.598V3C15.0008 2.73478 14.8954 2.48043 14.7079 2.29289C14.5203 2.10536 14.266 2 14.0008 2H10.0008C9.73556 2 9.48121 2.10536 9.29367 2.29289C9.10613 2.48043 9.00078 2.73478 9.00078 3V4.598C8.3215 4.88081 7.68396 5.25492 7.10578 5.71L5.71078 4.904C5.59714 4.83817 5.47165 4.79539 5.34146 4.7781C5.21128 4.76082 5.07897 4.76937 4.9521 4.80327C4.82522 4.83717 4.70628 4.89576 4.60207 4.97567C4.49786 5.05559 4.41043 5.15526 4.34478 5.269L2.34478 8.729C2.21316 8.9588 2.17768 9.2313 2.24604 9.48715C2.3144 9.74299 2.48108 9.96147 2.70978 10.095L4.08178 10.888C3.97391 11.6254 3.97391 12.3746 4.08178 13.112L2.70978 13.905C2.23378 14.18 2.06878 14.795 2.34478 15.271ZM12.0008 8C14.2068 8 16.0008 9.794 16.0008 12C16.0008 14.206 14.2068 16 12.0008 16C9.79478 16 8.00078 14.206 8.00078 12C8.00078 9.794 9.79478 8 12.0008 8Z" fill="black"/>
</svg>
