<svg width="24" height="24" viewBox="0 0 24 24" fill="none" xmlns="http://www.w3.org/2000/svg">
<path d="M10.7272 3.05173C11.3141 2.10776 12.688 2.10776 13.2749 3.05173L15.6994 6.95124C15.9059 7.28337 16.234 7.52171 16.6136 7.61547L21.0715 8.71632C22.1507 8.98281 22.5752 10.2894 21.8588 11.1393L18.8994 14.6502C18.6473 14.9492 18.522 15.3349 18.5502 15.725L18.8808 20.3048C18.9608 21.4135 17.8493 22.2211 16.8196 21.8023L12.566 20.0727C12.2038 19.9254 11.7983 19.9254 11.436 20.0727L7.18243 21.8023C6.15275 22.2211 5.04126 21.4135 5.12129 20.3048L5.45188 15.725C5.48004 15.3349 5.35473 14.9492 5.10267 14.6502L2.14324 11.1393C1.42683 10.2894 1.85138 8.98281 2.93052 8.71632L7.3884 7.61547C7.76808 7.52171 8.09614 7.28337 8.30264 6.95124L10.7272 3.05173Z" fill="#FFCB02"/>
</svg>
