<svg width="24" height="24" viewBox="0 0 24 24" fill="none" xmlns="http://www.w3.org/2000/svg">
<path d="M13.5026 4.12849C13.5026 4.98905 12.8049 5.68667 11.9444 5.68667C11.0838 5.68667 10.3862 4.98905 10.3862 4.12849C10.3862 3.26793 11.0838 2.57031 11.9444 2.57031C12.8049 2.57031 13.5026 3.26793 13.5026 4.12849Z" fill="#1F1F22"/>
<path d="M11.946 4.12846C15.0682 4.12871 17.612 6.60038 17.7291 9.69393C17.7292 9.69554 17.7305 9.69682 17.7321 9.69682C17.7338 9.69682 17.7351 9.69816 17.7351 9.6998V13.0759C17.7351 13.6954 18.453 14.1899 18.8005 14.7027L19.8122 16.1968C20.2615 16.8608 19.7857 17.7571 18.9841 17.7574H5.01341C4.21153 17.7574 3.73581 16.8609 4.18529 16.1968L5.19603 14.7027C5.52579 14.2159 6.15794 13.7497 6.15794 13.1617V9.6998C6.15794 9.69816 6.15928 9.69682 6.16093 9.69682C6.16253 9.69682 6.16385 9.69554 6.16391 9.69393C6.28102 6.60038 8.82386 4.12868 11.946 4.12846Z" fill="#1F1F22"/>
<path d="M14.3501 19.0217C14.3499 20.3537 13.2701 21.4338 11.938 21.4338C10.6891 21.4336 9.66196 20.4841 9.53856 19.2678L9.52586 19.0217H14.3501Z" fill="#1F1F22"/>
<rect x="15" y="4.53906" width="6" height="6" rx="3" fill="#FF2727"/>
<rect x="15" y="4.53906" width="6" height="6" rx="3" stroke="white"/>
</svg>
