<svg width="24" height="24" viewBox="0 0 24 24" fill="none" xmlns="http://www.w3.org/2000/svg">
<path d="M5.71582 11.1246L5.61426 11.1295C5.1098 11.1805 4.71582 11.6067 4.71582 12.1246C4.71582 12.6425 5.1098 13.0687 5.61426 13.1197L5.71582 13.1246L19.2344 13.1246C19.7867 13.1246 20.2344 12.6769 20.2344 12.1246C20.2344 11.5723 19.7867 11.1246 19.2344 11.1246L5.71582 11.1246Z" fill="black"/>
<path d="M8.71766 17.6383C9.08437 18.0512 9.7168 18.089 10.1298 17.7223C10.5425 17.3557 10.58 16.7241 10.2138 16.3111L8.71766 17.6383ZM10.1561 6.55038C9.78174 6.19273 9.20261 6.18304 8.81727 6.5123L8.74305 6.58261L4.27821 11.2564C3.94123 11.6092 3.91009 12.149 4.19227 12.5357L4.25282 12.6109L8.71766 17.6383L10.2138 16.3111L6.36121 11.9713L10.1884 7.96347L10.2557 7.88632C10.567 7.48634 10.5305 6.90803 10.1561 6.55038Z" fill="black"/>
</svg>
